<svg width="99" height="24" viewBox="0 0 99 24" fill="none" xmlns="http://www.w3.org/2000/svg">
<path d="M51.505 7.88404H54.505L55.303 3.54004H59.245L58.423 7.88404H62.305L61.705 11.208H57.799L56.647 17.238C56.317 19.038 57.247 19.392 58.321 19.392C58.9243 19.3561 59.5105 19.1772 60.031 18.87L61.147 21.948C59.9552 22.5441 58.6395 22.8504 57.307 22.842C54.307 22.842 52.081 20.622 52.675 17.514L53.875 11.208H50.875L51.505 7.88404Z" fill="#6272FF"/>
<path d="M79.591 14.3457C79.591 19.1757 74.929 22.8417 70.459 22.8417C65.335 22.8417 62.707 19.6377 62.707 16.0077C62.707 11.1417 67.375 7.51172 71.839 7.51172C76.963 7.51172 79.591 10.7157 79.591 14.3457ZM75.523 14.3457C75.523 12.4677 74.239 10.9617 71.839 10.9617C71.1749 10.9586 70.5168 11.0868 69.9024 11.3391C69.2881 11.5914 68.7298 11.9628 68.2597 12.4319C67.7895 12.9009 67.4168 13.4583 67.163 14.072C66.9093 14.6858 66.7794 15.3436 66.781 16.0077C66.781 17.8857 68.065 19.3917 70.459 19.3917C71.1236 19.3957 71.7824 19.268 72.3975 19.016C73.0125 18.7641 73.5715 18.3928 74.0423 17.9237C74.5131 17.4546 74.8863 16.8969 75.1404 16.2828C75.3946 15.6687 75.5246 15.0103 75.523 14.3457Z" fill="#6272FF"/>
<path d="M29.8867 22.4697L32.5867 7.88372H36.6007L36.2107 9.97772C36.6915 9.24611 37.3407 8.6404 38.1038 8.21134C38.8669 7.78229 39.7218 7.54238 40.5967 7.51172C41.2537 7.52134 41.9037 7.64729 42.5167 7.88372L41.7907 11.5737C41.1291 11.3259 40.4325 11.1842 39.7267 11.1537C37.9267 11.1537 35.8927 12.0717 35.3407 15.0537L33.9607 22.4697H29.8867Z" fill="#6272FF"/>
<path d="M83.4674 7.88358H87.3374L87.0914 9.68358C88.4227 8.32188 90.2393 7.54306 92.1434 7.51758C95.6594 7.51758 97.7354 9.91758 97.0814 13.3856L95.4014 22.4696H91.3454L92.8574 14.3996C93.2174 12.3956 92.0654 11.3096 90.2714 11.3096C89.3545 11.2726 88.4543 11.5632 87.732 12.1294C87.0097 12.6955 86.5125 13.5003 86.3294 14.3996L84.8234 22.4936H80.7734L83.4674 7.88358Z" fill="#6272FF"/>
<path d="M42.4141 22.4698H46.3621L49.0861 7.88379H45.1441L42.4141 22.4698Z" fill="#6272FF"/>
<path d="M47.8363 1.14617C47.5039 1.13416 47.1725 1.18837 46.8613 1.30565C46.5501 1.42293 46.2653 1.60093 46.0236 1.8293C45.7818 2.05767 45.5879 2.33184 45.453 2.63585C45.3182 2.93987 45.2452 3.26767 45.2383 3.60017C45.2703 4.26682 45.5577 4.89556 46.0409 5.35603C46.524 5.81649 47.1659 6.07335 47.8333 6.07335C48.5007 6.07335 49.1425 5.81649 49.6257 5.35603C50.1088 4.89556 50.3962 4.26682 50.4283 3.60017C50.4221 3.26795 50.3498 2.94028 50.2157 2.63629C50.0815 2.33231 49.8882 2.05809 49.6469 1.82965C49.4056 1.6012 49.1212 1.42311 48.8103 1.30576C48.4995 1.18841 48.1683 1.13416 47.8363 1.14617Z" fill="#6272FF"/>
<path d="M7.40408 9.34172C7.00969 9.81501 6.66206 10.3254 6.36608 10.8657C6.05382 11.4213 5.78695 12.0012 5.56808 12.5997C5.13265 13.6816 4.97386 14.855 5.10608 16.0137C5.16769 16.4764 5.33021 16.9199 5.58215 17.3129C5.8341 17.7058 6.16931 18.0386 6.56408 18.2877C7.5041 18.7587 8.58392 18.8697 9.60008 18.5997C10.7524 18.3435 11.8189 17.7937 12.6961 17.0037C13.6285 16.1691 14.3888 15.1601 14.9341 14.0337C15.0001 13.8957 15.0661 13.7517 15.1261 13.6077C15.1861 13.4637 15.2461 13.3197 15.2941 13.1817C15.3831 12.9409 15.4475 12.6916 15.4861 12.4377C15.4941 12.3359 15.4941 12.2336 15.4861 12.1317C15.492 12.0418 15.492 11.9516 15.4861 11.8617C15.4666 11.7247 15.4219 11.5924 15.3541 11.4717C15.3405 11.4429 15.3223 11.4166 15.3001 11.3937C15.2719 11.3651 15.2395 11.3408 15.2041 11.3217C15.1262 11.2741 15.0373 11.2472 14.9461 11.2437C14.8322 11.2406 14.7191 11.2633 14.6152 11.31C14.5113 11.3568 14.4193 11.4264 14.3461 11.5137C14.0868 11.8689 13.9142 12.2799 13.8421 12.7137C13.7791 12.9963 13.737 13.283 13.7161 13.5717C13.6951 13.8653 13.6951 14.1601 13.7161 14.4537C13.7457 15.0486 13.8588 15.6363 14.0521 16.1997C14.1418 16.4669 14.2501 16.7276 14.3761 16.9797C14.4956 17.2121 14.6362 17.433 14.7961 17.6397C15.4386 18.4553 16.3717 18.9907 17.4001 19.1337C17.9007 19.2049 18.4105 19.1764 18.9001 19.0497C19.4217 18.9107 19.9165 18.6856 20.3641 18.3837C21.3569 17.6773 22.1875 16.767 22.8001 15.7137C23.4974 14.5885 24.0478 13.3787 24.4381 12.1137C25.2328 9.48158 25.5379 6.72596 25.3381 3.98372L29.3221 3.76172C29.5032 6.98027 29.0966 10.2049 28.1221 13.2777C27.6133 14.8492 26.9098 16.3509 26.0281 17.7477C25.0985 19.2449 23.8612 20.5273 22.3981 21.5097C21.601 22.0279 20.7229 22.4092 19.8001 22.6377C18.8422 22.8744 17.8467 22.9172 16.8721 22.7637C15.9042 22.6149 14.9736 22.283 14.1301 21.7857C13.2852 21.2872 12.5455 20.6289 11.9521 19.8477C11.6623 19.4716 11.4072 19.07 11.1901 18.6477C10.9849 18.2331 10.8104 17.8039 10.6681 17.3637C10.3915 16.5046 10.2281 15.6131 10.1821 14.7117C10.1521 14.2622 10.1521 13.8112 10.1821 13.3617C10.2101 12.9034 10.2743 12.448 10.3741 11.9997C10.4726 11.5235 10.6152 11.0575 10.8001 10.6077C11.0125 10.0904 11.3062 9.61036 11.6701 9.18572C12.0888 8.70466 12.6089 8.32228 13.1929 8.06604C13.777 7.80981 14.4105 7.68607 15.0481 7.70372C15.7036 7.72648 16.3438 7.90765 16.9141 8.23172C17.2075 8.39517 17.4779 8.59694 17.7181 8.83172C17.9668 9.05818 18.1847 9.3164 18.3661 9.59972C18.6726 10.1201 18.8763 10.6945 18.9661 11.2917C19.0089 11.5717 19.031 11.8545 19.0321 12.1377C19.0307 12.4068 19.0106 12.6754 18.9721 12.9417C18.9029 13.424 18.7864 13.8983 18.6241 14.3577C18.5461 14.5737 18.4681 14.7717 18.3841 14.9577C18.3001 15.1437 18.2161 15.3597 18.1261 15.5577C17.3934 17.1289 16.3576 18.5399 15.0781 19.7097C13.7505 20.934 12.1274 21.7921 10.3681 22.1997C9.4545 22.4134 8.51303 22.4823 7.57808 22.4037C6.56702 22.3267 5.58456 22.032 4.69808 21.5397C3.78831 21.0236 3.01327 20.3 2.43608 19.4277C1.88137 18.5873 1.50557 17.6417 1.33208 16.6497C1.17282 15.7217 1.15663 14.7747 1.28408 13.8417C1.39453 12.9712 1.59562 12.1145 1.88408 11.2857C2.15847 10.4787 2.49965 9.69602 2.90408 8.94572C3.31549 8.17474 3.79755 7.4436 4.34408 6.76172L7.40408 9.34172Z" fill="#6272FF"/>
</svg>
