<svg width="50" height="50" viewBox="0 0 50 50" fill="none" xmlns="http://www.w3.org/2000/svg">
<path d="M25.5 41C28.6645 41 31.7579 40.0616 34.3891 38.3035C37.0203 36.5454 39.0711 34.0466 40.2821 31.1229C41.4931 28.1993 41.8099 24.9823 41.1926 21.8786C40.5752 18.7749 39.0513 15.9239 36.8137 13.6863C34.5761 11.4487 31.7251 9.92481 28.6214 9.30744C25.5177 8.69008 22.3007 9.00693 19.3771 10.2179C16.4534 11.4289 13.9546 13.4797 12.1965 16.1109C10.4384 18.7421 9.5 21.8355 9.5 25C9.5 27.5823 10.1099 30.0206 11.1973 32.1793C11.2488 32.2816 11.2652 32.3981 11.2422 32.5102L9.65242 40.2573C9.58026 40.6089 9.89111 40.9197 10.2427 40.8476L17.9898 39.2578C18.1019 39.2348 18.2184 39.2512 18.3207 39.3027C20.4794 40.3901 22.9194 41 25.5 41Z" fill="url(#paint0_linear_243_29749)"/>
<path d="M18.6445 22.7148H32.3588" stroke="white" stroke-width="2.5" stroke-linecap="round"/>
<path d="M18.6445 28.4297H27.7874" stroke="white" stroke-width="2.5" stroke-linecap="round"/>
<defs>
<linearGradient id="paint0_linear_243_29749" x1="17.5" y1="15.8571" x2="33.5" y2="41" gradientUnits="userSpaceOnUse">
<stop stop-color="#DBE8FC"/>
<stop offset="1" stop-color="#CEDFF8"/>
</linearGradient>
</defs>
</svg>
