<svg width="50" height="50" viewBox="0 0 50 50" fill="none" xmlns="http://www.w3.org/2000/svg">
<g clip-path="url(#clip0_243_29730)">
<path fill-rule="evenodd" clip-rule="evenodd" d="M10.4688 46.6667V5.93945H13.3778V46.6667H10.4688Z" fill="#D9D9D9"/>
<path opacity="0.2" fill-rule="evenodd" clip-rule="evenodd" d="M10.4688 46.6667V5.93945H11.4384V46.6667H10.4688Z" fill="#BDBDBD"/>
<path d="M41.3433 24.4592C41.7756 25.2563 41.2619 26.2099 40.3158 26.3712L36.3076 27.045L25.6156 28.8478C24.7357 28.9949 23.9219 28.3686 23.9219 27.5383V13.5849C23.9219 12.9397 24.4203 12.3893 25.1019 12.2754L36.2161 10.4014L39.4918 9.85102C40.6312 9.65648 41.5366 10.7382 41.0533 11.7156L37.8946 18.1159L41.3433 24.4592Z" fill="#D2D5DB"/>
<path d="M27.5717 25.6083C27.5717 25.6083 23.9297 26.2299 23.9297 27.5394V25.3047L27.5717 25.6083Z" fill="#D2D5DB"/>
<path d="M28.7498 24.2084C28.7498 24.8964 28.2513 25.4847 27.5697 25.6081L22.8545 26.4573L12.1626 28.3835C11.2826 28.5401 10.4688 27.8711 10.4688 26.984V12.0769C10.4688 11.3889 10.9672 10.8006 11.6488 10.6772L22.763 8.67507L27.056 7.90172C27.9359 7.74516 28.7498 8.41412 28.7498 9.30134V24.2084Z" fill="#D2D5DB"/>
<path d="M12.4091 4H11.4394C10.3683 4 9.5 4.8683 9.5 5.93939V6.90909C9.5 7.98019 10.3683 8.84849 11.4394 8.84849H12.4091C13.4802 8.84849 14.3485 7.98019 14.3485 6.90909V5.93939C14.3485 4.8683 13.4802 4 12.4091 4Z" fill="#D9D9D9"/>
</g>
<defs>
<clipPath id="clip0_243_29730">
<rect width="32" height="42.6667" fill="white" transform="translate(9.5 4)"/>
</clipPath>
</defs>
</svg>
