<svg width="50" height="50" viewBox="0 0 50 50" fill="none" xmlns="http://www.w3.org/2000/svg">
<path d="M20.1092 38.2819C19.8702 38.5209 19.5687 38.6878 19.2393 38.7634L12.3003 40.3569C11.0055 40.6543 9.84572 39.4945 10.1431 38.1997L11.7366 31.2607C11.8122 30.9313 11.9791 30.6298 12.2181 30.3908L26.1351 16.4738C26.838 15.7708 27.9777 15.7708 28.6807 16.4738L34.0262 21.8193C34.7292 22.5223 34.7292 23.662 34.0262 24.3649L20.1092 38.2819Z" fill="#D2D5DB"/>
<path d="M40.2272 15.6183C40.9302 16.3213 40.9302 17.461 40.2272 18.1639L37.9481 20.443C37.2452 21.146 36.1055 21.146 35.4025 20.443L30.057 15.0975C29.354 14.3945 29.354 13.2548 30.057 12.5519L32.3361 10.2728C33.039 9.56985 34.1787 9.56985 34.8817 10.2728L40.2272 15.6183Z" fill="#D2D5DB"/>
</svg>
