<svg width="50" height="50" viewBox="0 0 50 50" fill="none" xmlns="http://www.w3.org/2000/svg">
<path d="M32.94 19.0744C32.5314 20.3452 31.9831 21.5521 31.3129 22.6787C31.1658 22.9269 30.7854 22.8422 30.7602 22.5539C30.5744 20.4046 30.0038 18.3654 29.1212 16.5045C27.6665 13.4412 25.3589 10.8609 22.506 9.06993C22.2059 8.88116 21.8151 9.09668 21.821 9.45191C21.8225 9.51136 21.8225 9.57082 21.8225 9.63027C21.8225 13.251 20.7868 16.1894 17.6234 18.6508C17.4599 18.7771 17.3054 18.9139 17.1405 19.0387C14.3039 21.4243 12.5 25.0004 12.5 28.9971C12.5 29.6957 12.5565 30.3809 12.662 31.0497C13.3262 35.2352 15.9859 38.7563 19.6368 40.6053C21.4302 41.5134 23.4615 42.0188 25.613 41.9995C32.7201 41.9385 38.5998 35.9144 38.4987 28.8068C38.4408 24.7848 36.5581 21.2058 33.6413 18.8604C33.3976 18.6642 33.0351 18.7786 32.94 19.0744Z" fill="#D2D5DB"/>
</svg>
