<svg width="50" height="50" viewBox="0 0 50 50" fill="none" xmlns="http://www.w3.org/2000/svg">
<g clip-path="url(#clip0_243_29735)">
<path fill-rule="evenodd" clip-rule="evenodd" d="M10.4688 46.6699V5.93945H13.3781V46.6699H10.4688Z" fill="#D9D9D9"/>
<path opacity="0.2" fill-rule="evenodd" clip-rule="evenodd" d="M10.4688 46.6699V5.93945H11.4385V46.6699H10.4688Z" fill="#BDBDBD"/>
<path d="M41.3485 24.4613C41.7809 25.2584 41.2672 26.2122 40.321 26.3735L36.3125 27.0473L25.6197 28.8503C24.7397 28.9974 23.9258 28.371 23.9258 27.5407V13.5862C23.9258 12.9409 24.4242 12.3905 25.1059 12.2766L36.2209 10.4024L39.4969 9.85199C40.6364 9.65745 41.5419 10.7393 41.0586 11.7167L37.8996 18.1175L41.3485 24.4613Z" fill="url(#paint0_linear_243_29735)"/>
<path d="M27.572 25.6093C27.572 25.6093 23.9297 26.2309 23.9297 27.5405V25.3057L27.572 25.6093Z" fill="#4E4ED8"/>
<path d="M28.7512 24.2097C28.7512 24.8977 28.2527 25.4861 27.5711 25.6095L22.8555 26.4588L12.1627 28.3851C11.2827 28.5418 10.4688 27.8727 10.4688 26.9855V12.0772C10.4688 11.3892 10.9673 10.8008 11.6489 10.6774L22.7639 8.67513L27.0573 7.90173C27.9373 7.74515 28.7512 8.41416 28.7512 9.30145V24.2097Z" fill="url(#paint1_linear_243_29735)"/>
<path d="M12.4093 4H11.4395C10.3684 4 9.5 4.86836 9.5 5.93955V6.90932C9.5 7.9805 10.3684 8.84886 11.4395 8.84886H12.4093C13.4805 8.84886 14.3489 7.9805 14.3489 6.90932V5.93955C14.3489 4.86836 13.4805 4 12.4093 4Z" fill="#D9D9D9"/>
</g>
<defs>
<linearGradient id="paint0_linear_243_29735" x1="32.7147" y1="9.8291" x2="32.7147" y2="28.8718" gradientUnits="userSpaceOnUse">
<stop stop-color="#6272FF"/>
<stop offset="1" stop-color="#8785FF"/>
</linearGradient>
<linearGradient id="paint1_linear_243_29735" x1="19.61" y1="7.87891" x2="19.61" y2="28.408" gradientUnits="userSpaceOnUse">
<stop stop-color="#6272FF"/>
<stop offset="1" stop-color="#8785FF"/>
</linearGradient>
<clipPath id="clip0_243_29735">
<rect width="32.0025" height="42.67" fill="white" transform="translate(9.5 4)"/>
</clipPath>
</defs>
</svg>
